<svg width="32" height="32" viewBox="0 0 32 32" fill="none" xmlns="http://www.w3.org/2000/svg">
<path d="M28.65 16.6C31.725 13.525 31.725 8.52501 28.65 5.47501C25.575 2.40001 20.575 2.40001 17.5 5.47501L16 6.97501L14.5 5.47501C11.425 2.40001 6.42501 2.40001 3.37501 5.47501C1.87501 6.95001 1.07501 8.95001 1.07501 11.05C1.07501 13.15 1.90001 15.125 3.37501 16.625L16 29.25L28.65 16.6ZM3.05001 11.05C3.05001 9.47501 3.65001 8.00001 4.77501 6.90001C5.92501 5.75001 7.42501 5.17501 8.92501 5.17501C10.425 5.17501 11.925 5.75001 13.075 6.90001L16 9.80001L18.925 6.87501C21.225 4.57501 24.95 4.57501 27.225 6.87501C28.325 7.97501 28.95 9.45001 28.95 11.025C28.95 12.6 28.35 14.075 27.225 15.175L16 26.425L4.77501 15.2C3.67501 14.075 3.05001 12.6 3.05001 11.05Z" fill="black"/>
</svg>
