<svg width="32" height="32" viewBox="0 0 32 32" fill="none" xmlns="http://www.w3.org/2000/svg">
<g clip-path="url(#clip0_119739_23)">
<path d="M23.52 29H8.52C7.68549 28.9998 6.86204 28.8091 6.11246 28.4423C5.36289 28.0755 4.70698 27.5424 4.19478 26.8835C3.68257 26.2247 3.3276 25.4576 3.15693 24.6407C2.98626 23.8239 3.00441 22.9788 3.21 22.17L6.25 9.76001C6.30475 9.53813 6.43384 9.3417 6.61579 9.20342C6.79774 9.06514 7.02156 8.99335 7.25 9.00001H24C24.2206 8.98991 24.4383 9.0531 24.6192 9.17973C24.8001 9.30636 24.934 9.4893 25 9.70001L28.78 21.86C29.0384 22.6859 29.0979 23.5612 28.9537 24.4145C28.8095 25.2678 28.4655 26.0749 27.95 26.77C27.4429 27.468 26.7762 28.0346 26.0056 28.4226C25.235 28.8105 24.3827 29.0085 23.52 29V29ZM8 11L5.11 22.65C4.9813 23.164 4.97099 23.7005 5.07983 24.2191C5.18868 24.7376 5.41385 25.2247 5.73835 25.6436C6.06286 26.0625 6.47823 26.4022 6.95315 26.6372C7.42807 26.8721 7.95014 26.9962 8.48 27H23.48C24.0242 27.0009 24.5609 26.8726 25.0459 26.6258C25.5309 26.3789 25.9504 26.0205 26.27 25.58C26.5988 25.137 26.8182 24.6225 26.9103 24.0786C27.0024 23.5346 26.9646 22.9766 26.8 22.45L23.28 11H8Z" fill="black"/>
<path d="M20 17C19.7348 17 19.4804 16.8946 19.2929 16.7071C19.1054 16.5196 19 16.2652 19 16V8C19 7.20435 18.6839 6.44129 18.1213 5.87868C17.5587 5.31607 16.7956 5 16 5C15.2044 5 14.4413 5.31607 13.8787 5.87868C13.3161 6.44129 13 7.20435 13 8V16C13 16.2652 12.8946 16.5196 12.7071 16.7071C12.5196 16.8946 12.2652 17 12 17C11.7348 17 11.4804 16.8946 11.2929 16.7071C11.1054 16.5196 11 16.2652 11 16V8C11 6.67392 11.5268 5.40215 12.4645 4.46447C13.4021 3.52678 14.6739 3 16 3C17.3261 3 18.5979 3.52678 19.5355 4.46447C20.4732 5.40215 21 6.67392 21 8V16C21 16.2652 20.8946 16.5196 20.7071 16.7071C20.5196 16.8946 20.2652 17 20 17Z" fill="black"/>
</g>
<defs>
<clipPath id="clip0_119739_23">
<rect width="32" height="32" fill="white"/>
</clipPath>
</defs>
</svg>
