<svg width="18" height="16" viewBox="0 0 18 16" fill="none" xmlns="http://www.w3.org/2000/svg">
<path d="M8.97432 16C8.73691 16.0006 8.50173 15.952 8.2823 15.857C8.06288 15.762 7.86355 15.6224 7.69578 15.4463L1.51312 8.9659C1.02472 8.44841 0.639443 7.83421 0.379746 7.1591C0.120049 6.48399 -0.00887884 5.76146 0.000474819 5.0336C0.00518067 4.36658 0.135388 3.70709 0.383638 3.0929C0.631889 2.47871 0.993305 1.92188 1.44718 1.45433C1.90106 0.98677 2.43849 0.617663 3.02868 0.36815C3.61886 0.118636 4.25022 -0.00638168 4.88657 0.000257269C5.53432 -0.00658168 6.17678 0.122993 6.77585 0.381296C7.37492 0.639599 7.9184 1.02137 8.37407 1.50397L8.97432 2.13314L9.46654 1.61722C10.3164 0.702766 11.4537 0.142143 12.6678 0.0391866C13.8818 -0.0637693 15.0903 0.297918 16.0694 1.05726C16.6267 1.50714 17.0862 2.07633 17.4173 2.72692C17.7484 3.37751 17.9434 4.09456 17.9894 4.83033C18.0354 5.5661 17.9313 6.3037 17.6841 6.99401C17.4369 7.68432 17.0521 8.31149 16.5556 8.83377L10.2529 15.4463C10.0851 15.6224 9.88577 15.762 9.66635 15.857C9.44692 15.952 9.21174 16.0006 8.97432 16ZM4.86256 1.2523C3.90846 1.25128 2.99142 1.63938 2.30546 2.33447C1.95575 2.68715 1.67765 3.11027 1.48785 3.57842C1.29805 4.04657 1.20048 4.5501 1.20099 5.05877C1.19573 5.61829 1.29648 6.17335 1.49741 6.69176C1.69833 7.21017 1.99544 7.68161 2.37149 8.07877L8.55414 14.5592C8.60995 14.6182 8.67634 14.665 8.74948 14.6969C8.82263 14.7289 8.90109 14.7453 8.98033 14.7453C9.05957 14.7453 9.13803 14.7289 9.21117 14.6969C9.28432 14.665 9.35071 14.6182 9.40651 14.5592L15.7152 7.94035C16.0855 7.544 16.3716 7.07001 16.5548 6.54952C16.7379 6.02902 16.8138 5.47381 16.7777 4.92035C16.7456 4.36122 16.5987 3.81595 16.3469 3.32185C16.0952 2.82776 15.7446 2.39652 15.319 2.05764C14.5724 1.48062 13.6511 1.20779 12.7268 1.28998C11.8024 1.37216 10.9381 1.80375 10.2949 2.50435L9.40051 3.46697C9.34471 3.52594 9.27832 3.57275 9.20517 3.60469C9.13202 3.63663 9.05357 3.65308 8.97432 3.65308C8.89508 3.65308 8.81663 3.63663 8.74348 3.60469C8.67033 3.57275 8.60394 3.52594 8.54814 3.46697L7.5277 2.39739C6.82486 1.6671 5.87622 1.25581 4.88657 1.2523H4.86256Z" fill="#A7A7A7"/>
</svg>
