<svg width="161" height="69" viewBox="0 0 161 69" fill="none" xmlns="http://www.w3.org/2000/svg">
<path d="M53.4216 59.32C52.7816 59.32 52.2416 59.1 51.8016 58.66C51.3616 58.22 51.1416 57.68 51.1416 57.04C51.1416 54.56 50.6616 52.22 49.7016 50.02C48.7816 47.82 47.5016 45.9 45.8616 44.26C44.2216 42.62 42.3016 41.32 40.1016 40.36C37.9016 39.4 35.5416 38.92 33.0216 38.92C32.8216 38.92 32.6416 38.92 32.4816 38.92C32.3216 38.92 32.1416 38.94 31.9416 38.98C31.0616 40.98 30.1416 42.94 29.1816 44.86C28.2216 46.78 27.1816 48.56 26.0616 50.2C24.9816 51.84 23.8016 53.28 22.5216 54.52C21.2416 55.76 19.8416 56.72 18.3216 57.4C17.1216 57.92 16.0016 58.28 14.9616 58.48C13.9216 58.72 12.9616 58.84 12.0816 58.84C10.5216 58.84 9.18156 58.6 8.06156 58.12C6.98156 57.64 6.12156 57.16 5.48156 56.68C3.92156 55.52 2.76156 54 2.00156 52.12C1.24156 50.24 1.00156 48.26 1.28156 46.18C1.60156 43.66 2.58156 41.44 4.22156 39.52C5.90156 37.6 8.08156 36.1 10.7616 35.02C11.3216 34.78 11.8816 34.78 12.4416 35.02C13.0416 35.26 13.4416 35.68 13.6416 36.28C13.8816 36.84 13.8816 37.42 13.6416 38.02C13.4016 38.58 13.0016 38.98 12.4416 39.22C10.5216 39.98 8.98156 41.02 7.82156 42.34C6.66156 43.62 5.98156 45.08 5.78156 46.72C5.58156 48 5.70156 49.2 6.14156 50.32C6.58156 51.48 7.26156 52.4 8.18156 53.08C9.22156 53.88 10.4416 54.28 11.8416 54.28C13.2816 54.32 14.8216 53.98 16.4616 53.26C18.5016 52.34 20.3216 50.68 21.9216 48.28C23.5616 45.88 25.0816 43.16 26.4816 40.12C24.6416 40.84 22.9416 41.84 21.3816 43.12C19.8616 44.36 18.5816 45.86 17.5416 47.62C17.2216 48.18 16.7616 48.52 16.1616 48.64C15.5616 48.8 15.0016 48.72 14.4816 48.4C13.9216 48.08 13.5616 47.62 13.4016 47.02C13.2816 46.42 13.3816 45.86 13.7016 45.34C15.7016 42.02 18.4016 39.38 21.8016 37.42C22.8816 36.78 24.0016 36.26 25.1616 35.86C26.3616 35.42 27.5816 35.08 28.8216 34.84L29.4216 33.34C30.1816 31.58 30.9816 29.74 31.8216 27.82C32.7016 25.86 33.6416 24.02 34.6416 22.3C35.6816 20.58 36.8216 19.06 38.0616 17.74C39.3016 16.42 40.6616 15.5 42.1416 14.98C41.1016 14.82 39.9616 14.82 38.7216 14.98C37.5216 15.1 36.3216 15.34 35.1216 15.7C33.9216 16.02 32.7816 16.42 31.7016 16.9C30.6216 17.34 29.7016 17.8 28.9416 18.28C24.2216 21.32 21.1416 26.16 19.7016 32.8C19.4616 33.96 18.9216 34.78 18.0816 35.26C17.2816 35.7 16.4616 35.86 15.6216 35.74C14.7816 35.62 14.0816 35.24 13.5216 34.6C12.9616 33.92 12.8016 33 13.0416 31.84C14.0416 27.36 15.7816 23.66 18.2616 20.74C20.7416 17.78 23.5616 15.52 26.7216 13.96C29.8816 12.36 33.1416 11.38 36.5016 11.02C39.9016 10.66 43.0016 10.78 45.8016 11.38C46.2816 11.5 46.6816 11.74 47.0016 12.1C47.3216 12.46 47.5016 12.9 47.5416 13.42C47.6216 13.9 47.5216 14.36 47.2416 14.8C46.9616 15.2 46.6016 15.5 46.1616 15.7C44.8816 16.22 43.6816 17.1 42.5616 18.34C41.4816 19.58 40.4416 21.06 39.4416 22.78C38.4416 24.46 37.4816 26.32 36.5616 28.36C35.6416 30.36 34.7416 32.4 33.8616 34.48C34.5416 34.52 35.1816 34.58 35.7816 34.66C36.4216 34.7 37.0416 34.78 37.6416 34.9C39.2416 34.34 40.7016 33.6 42.0216 32.68C43.3416 31.76 44.5616 30.76 45.6816 29.68C46.8416 28.56 47.9216 27.36 48.9216 26.08C49.9216 24.8 50.9016 23.52 51.8616 22.24C52.8616 20.92 53.8616 19.64 54.8616 18.4C55.8616 17.12 56.9016 15.98 57.9816 14.98C59.1016 13.94 60.2816 13.06 61.5216 12.34C62.8016 11.58 64.2016 11.06 65.7216 10.78C66.3616 10.66 66.9216 10.78 67.4016 11.14C67.9216 11.5 68.2416 11.98 68.3616 12.58C68.4816 13.18 68.3616 13.74 68.0016 14.26C67.6416 14.78 67.1616 15.1 66.5616 15.22C65.4816 15.42 64.4616 15.82 63.5016 16.42C62.5816 16.98 61.6616 17.7 60.7416 18.58C59.8616 19.46 58.9816 20.44 58.1016 21.52C57.2616 22.6 56.3816 23.74 55.4616 24.94C54.5416 26.14 53.6016 27.32 52.6416 28.48C51.6816 29.6 50.6416 30.66 49.5216 31.66C48.4416 32.62 47.2616 33.5 45.9816 34.3C44.7016 35.1 43.3216 35.74 41.8416 36.22C43.8816 37.1 45.7416 38.24 47.4216 39.64C49.1016 41.04 50.5416 42.64 51.7416 44.44C52.9816 46.24 53.9416 48.2 54.6216 50.32C55.3016 52.48 55.6416 54.72 55.6416 57.04C55.6416 57.68 55.4216 58.22 54.9816 58.66C54.5816 59.1 54.0616 59.32 53.4216 59.32ZM60.6202 47.5C60.1802 47.22 59.7602 46.84 59.3602 46.36C58.9202 45.92 58.5802 45.36 58.3402 44.68C58.1002 44 58.0002 43.2 58.0402 42.28C58.0402 41.32 58.2402 40.22 58.6402 38.98C59.0802 37.62 59.7002 36.22 60.5002 34.78C61.3002 33.34 62.0802 31.96 62.8402 30.64C63.4002 29.76 63.9602 28.82 64.5202 27.82C65.0802 26.82 65.3802 26.12 65.4202 25.72C65.4202 25.08 65.6402 24.54 66.0802 24.1C66.5202 23.66 67.0402 23.44 67.6402 23.44C68.2802 23.44 68.8202 23.66 69.2602 24.1C69.7002 24.5 69.9402 25.02 69.9802 25.66C69.9802 26.54 69.7002 27.54 69.1402 28.66C68.5802 29.78 67.7802 31.22 66.7402 32.98C66.2602 33.82 65.7002 34.8 65.0602 35.92C64.4202 37 63.8602 38.06 63.3802 39.1C62.9402 40.14 62.6402 41.1 62.4802 41.98C62.3602 42.82 62.5402 43.38 63.0202 43.66C63.1002 43.7 63.2402 43.72 63.4402 43.72C63.6802 43.72 63.9802 43.64 64.3402 43.48C64.7002 43.32 65.1402 43.06 65.6602 42.7C66.2202 42.34 66.8602 41.84 67.5802 41.2C68.3002 40.56 69.0002 39.88 69.6802 39.16C70.3602 38.4 70.9802 37.68 71.5402 37C72.1402 36.28 72.6602 35.64 73.1002 35.08C73.5402 34.52 73.8802 34.06 74.1202 33.7C74.4802 33.22 74.8402 32.92 75.2002 32.8C75.6002 32.68 75.9402 32.7 76.2202 32.86C76.5002 32.98 76.6602 33.22 76.7002 33.58C76.7802 33.94 76.6402 34.36 76.2802 34.84C76.0802 35.08 75.7202 35.66 75.2002 36.58C74.6802 37.5 74.0202 38.54 73.2202 39.7C72.4202 40.86 71.5202 42.06 70.5202 43.3C69.5202 44.5 68.4602 45.52 67.3402 46.36C66.2602 47.24 65.1402 47.82 63.9802 48.1C62.8202 48.38 61.7002 48.18 60.6202 47.5ZM74.1202 18.34C74.1202 19.14 73.8402 19.82 73.2802 20.38C72.7602 20.9 72.1002 21.16 71.3002 21.16C70.5002 21.16 69.8202 20.9 69.2602 20.38C68.7402 19.82 68.4802 19.14 68.4802 18.34C68.4802 17.54 68.7402 16.88 69.2602 16.36C69.8202 15.8 70.5002 15.52 71.3002 15.52C72.1002 15.52 72.7602 15.8 73.2802 16.36C73.8402 16.88 74.1202 17.54 74.1202 18.34ZM79.5094 48.4C77.3494 48.4 75.6694 47.8 74.4694 46.6C73.5894 45.8 72.9694 44.8 72.6094 43.6C72.2494 42.36 72.1694 40.98 72.3694 39.46C72.5294 38.18 72.8694 36.86 73.3894 35.5C73.8694 34.14 74.5294 32.76 75.3694 31.36C76.2894 29.88 77.2694 28.52 78.3094 27.28C79.3494 26.04 80.4494 25.02 81.6094 24.22C83.4094 22.86 84.9894 22.14 86.3494 22.06C87.7494 21.94 88.8894 22.04 89.7694 22.36C91.6494 23.04 92.8094 24.36 93.2494 26.32C93.5294 27.4 93.5094 28.52 93.1894 29.68C92.8694 30.84 92.2694 31.9 91.3894 32.86C90.9494 33.34 90.4294 33.6 89.8294 33.64C89.2294 33.68 88.6894 33.48 88.2094 33.04C87.7694 32.6 87.5094 32.08 87.4294 31.48C87.3894 30.88 87.5894 30.34 88.0294 29.86C88.3494 29.5 88.6294 29.12 88.8694 28.72C89.1094 28.28 89.2694 27.86 89.3494 27.46C89.4294 27.06 89.4094 26.7 89.2894 26.38C89.1694 26.06 88.9094 25.82 88.5094 25.66C87.9494 25.46 87.2894 25.54 86.5294 25.9C85.7694 26.26 84.9694 26.82 84.1294 27.58C83.2894 28.34 82.4294 29.26 81.5494 30.34C80.7094 31.38 79.9294 32.5 79.2094 33.7C78.6094 34.74 78.1094 35.76 77.7094 36.76C77.3094 37.72 77.0294 38.64 76.8694 39.52C76.7494 40.4 76.7294 41.18 76.8094 41.86C76.9294 42.54 77.1894 43.06 77.5894 43.42C78.3494 44.14 79.4694 44.4 80.9494 44.2C82.4294 44 84.0294 43.44 85.7494 42.52C87.5094 41.6 89.2894 40.38 91.0894 38.86C92.8894 37.34 94.5094 35.62 95.9494 33.7C96.3094 33.18 96.6894 32.86 97.0894 32.74C97.4894 32.62 97.8094 32.64 98.0494 32.8C98.3294 32.92 98.4894 33.18 98.5294 33.58C98.5694 33.94 98.4094 34.38 98.0494 34.9C96.6094 36.82 95.1294 38.6 93.6094 40.24C92.0894 41.88 90.5294 43.3 88.9294 44.5C87.3694 45.7 85.7894 46.64 84.1894 47.32C82.6294 48.04 81.0694 48.4 79.5094 48.4ZM91.3448 48.28C90.9848 48.28 90.6048 48.18 90.2048 47.98C89.6448 47.66 89.3048 47.2 89.1848 46.6C89.0248 46 89.1048 45.42 89.4248 44.86C90.1448 43.66 91.0448 42.14 92.1248 40.3C93.2048 38.42 94.3648 36.42 95.6048 34.3C96.8048 32.18 98.0248 30.02 99.2648 27.82C100.505 25.58 101.645 23.46 102.685 21.46C103.725 19.46 104.605 17.68 105.325 16.12C106.085 14.52 106.585 13.32 106.825 12.52C106.985 11.92 107.325 11.46 107.845 11.14C108.365 10.78 108.925 10.7 109.525 10.9C110.125 11.06 110.585 11.4 110.905 11.92C111.265 12.44 111.345 13 111.145 13.6C110.945 14.4 110.545 15.46 109.945 16.78C109.385 18.06 108.705 19.5 107.905 21.1C107.105 22.7 106.225 24.4 105.265 26.2C104.305 28 103.325 29.8 102.325 31.6H102.745C103.105 31.68 103.445 31.78 103.765 31.9C104.085 31.98 104.385 32.08 104.665 32.2C105.785 31.6 106.885 30.86 107.965 29.98C109.085 29.1 110.105 28.22 111.025 27.34C111.945 26.42 112.765 25.54 113.485 24.7C114.205 23.86 114.765 23.18 115.165 22.66C115.565 22.18 116.065 21.9 116.665 21.82C117.305 21.74 117.865 21.9 118.345 22.3C118.825 22.66 119.105 23.16 119.185 23.8C119.265 24.4 119.105 24.94 118.705 25.42C118.025 26.26 117.245 27.12 116.365 28C115.485 28.84 114.545 29.64 113.545 30.4C112.545 31.16 111.485 31.86 110.365 32.5C109.285 33.1 108.185 33.58 107.065 33.94C107.465 34.38 107.785 34.92 108.025 35.56C108.345 36.4 108.505 37.26 108.505 38.14C108.505 38.98 108.465 39.8 108.385 40.6C108.345 41.16 108.305 41.74 108.265 42.34C108.225 42.94 108.305 43.32 108.505 43.48C108.545 43.48 108.585 43.5 108.625 43.54C108.665 43.54 108.745 43.52 108.865 43.48C109.625 43.36 110.825 42.56 112.465 41.08C114.105 39.6 116.125 37.14 118.525 33.7C118.885 33.22 119.265 32.92 119.665 32.8C120.065 32.68 120.385 32.68 120.625 32.8C120.905 32.92 121.065 33.16 121.105 33.52C121.185 33.88 121.065 34.3 120.745 34.78C119.505 36.58 118.385 38.24 117.385 39.76C116.385 41.28 115.445 42.62 114.565 43.78C113.685 44.94 112.845 45.88 112.045 46.6C111.245 47.32 110.425 47.76 109.585 47.92C109.185 48 108.885 48.04 108.685 48.04C108.165 48.04 107.665 47.96 107.185 47.8C106.745 47.64 106.325 47.42 105.925 47.14C105.325 46.7 104.865 46.2 104.545 45.64C104.225 45.04 104.005 44.44 103.885 43.84C103.805 43.2 103.765 42.58 103.765 41.98C103.805 41.38 103.845 40.8 103.885 40.24C103.965 39.44 104.005 38.8 104.005 38.32C104.005 37.8 103.925 37.4 103.765 37.12C103.645 36.8 103.425 36.56 103.105 36.4C102.825 36.24 102.425 36.12 101.905 36.04C101.225 35.92 100.725 35.58 100.405 35.02C99.5648 36.5 98.7448 37.92 97.9448 39.28C97.1448 40.6 96.4448 41.8 95.8448 42.88C95.2048 43.96 94.6648 44.88 94.2248 45.64C93.7448 46.4 93.4248 46.92 93.2648 47.2C92.8248 47.92 92.1848 48.28 91.3448 48.28ZM124.163 48.34C121.843 48.34 120.083 47.8 118.883 46.72C117.803 45.72 117.123 44.56 116.843 43.24C116.523 41.92 116.483 40.54 116.723 39.1C116.963 37.62 117.403 36.16 118.043 34.72C118.683 33.28 119.423 31.94 120.263 30.7C121.263 29.18 122.403 27.78 123.683 26.5C125.003 25.18 126.363 24.12 127.763 23.32C129.163 22.48 130.543 21.98 131.903 21.82C133.303 21.62 134.603 21.86 135.803 22.54C136.803 23.1 137.543 23.88 138.023 24.88C138.503 25.84 138.663 26.92 138.503 28.12C138.423 29.08 138.163 30.02 137.723 30.94C137.283 31.86 136.723 32.72 136.043 33.52C135.403 34.32 134.643 35.02 133.763 35.62C132.883 36.22 131.943 36.68 130.943 37C130.503 37.12 129.963 37.24 129.323 37.36C128.723 37.44 128.063 37.46 127.343 37.42C126.623 37.34 125.863 37.16 125.063 36.88C124.303 36.56 123.503 36.1 122.663 35.5C122.263 36.3 121.923 37.1 121.643 37.9C121.403 38.66 121.243 39.38 121.163 40.06C121.083 40.74 121.103 41.38 121.223 41.98C121.343 42.54 121.583 43 121.943 43.36C122.783 44.2 123.963 44.54 125.483 44.38C127.003 44.18 128.643 43.62 130.403 42.7C132.163 41.74 133.943 40.48 135.743 38.92C137.543 37.36 139.163 35.62 140.603 33.7C140.963 33.18 141.343 32.86 141.743 32.74C142.183 32.58 142.523 32.58 142.763 32.74C143.043 32.86 143.203 33.12 143.243 33.52C143.283 33.88 143.103 34.32 142.703 34.84C139.743 38.88 136.783 42.08 133.823 44.44C130.903 46.76 128.163 48.04 125.603 48.28C125.363 48.32 125.123 48.34 124.883 48.34C124.643 48.34 124.403 48.34 124.163 48.34ZM125.123 31.66C126.483 32.82 127.963 33.16 129.563 32.68C130.523 32.4 131.363 31.92 132.083 31.24C132.803 30.52 133.363 29.78 133.763 29.02C134.203 28.26 134.443 27.56 134.483 26.92C134.563 26.28 134.403 25.84 134.003 25.6C133.643 25.36 133.103 25.34 132.383 25.54C131.703 25.74 130.943 26.12 130.103 26.68C129.263 27.2 128.403 27.9 127.523 28.78C126.643 29.62 125.843 30.58 125.123 31.66ZM140.613 33.7C141.173 32.82 141.733 31.86 142.293 30.82C142.853 29.78 143.373 28.72 143.853 27.64C144.333 26.56 144.733 25.5 145.053 24.46C145.413 23.42 145.653 22.5 145.773 21.7C145.893 20.9 146.193 20.3 146.673 19.9C147.153 19.46 147.633 19.26 148.113 19.3C148.593 19.34 148.973 19.62 149.253 20.14C149.533 20.66 149.533 21.44 149.253 22.48C150.173 22.52 151.093 22.7 152.013 23.02C152.933 23.3 153.693 23.86 154.293 24.7C154.973 25.74 155.213 27 155.013 28.48C154.813 29.92 154.133 31.62 152.973 33.58C151.773 35.58 150.833 37.18 150.153 38.38C149.513 39.54 149.053 40.62 148.773 41.62C148.573 42.3 148.453 42.82 148.413 43.18C148.413 43.5 148.453 43.7 148.533 43.78C148.653 43.78 148.933 43.7 149.373 43.54C149.813 43.34 150.413 42.9 151.173 42.22C151.973 41.54 152.933 40.54 154.053 39.22C155.173 37.86 156.453 36.02 157.893 33.7C158.253 33.14 158.633 32.78 159.033 32.62C159.433 32.42 159.773 32.38 160.053 32.5C160.373 32.62 160.553 32.86 160.593 33.22C160.673 33.58 160.533 34.04 160.173 34.6C159.533 35.64 158.753 36.94 157.833 38.5C156.913 40.06 155.933 41.56 154.893 43C153.853 44.44 152.773 45.68 151.653 46.72C150.573 47.76 149.533 48.28 148.533 48.28C147.333 48.28 146.353 47.92 145.593 47.2C144.713 46.44 144.173 45.58 143.973 44.62C143.773 43.62 143.853 42.48 144.213 41.2C144.573 39.88 145.173 38.4 146.013 36.76C146.853 35.12 147.873 33.28 149.073 31.24C149.913 29.84 150.373 28.84 150.453 28.24C150.533 27.64 150.573 27.32 150.573 27.28C150.493 27.2 150.213 27.12 149.733 27.04C149.293 26.92 148.433 26.96 147.153 27.16C146.753 27.92 146.333 28.7 145.893 29.5C145.453 30.3 145.033 31.06 144.633 31.78C144.233 32.46 143.853 33.08 143.493 33.64C143.173 34.2 142.913 34.6 142.713 34.84C142.393 35.28 142.033 35.58 141.633 35.74C141.233 35.86 140.893 35.86 140.613 35.74C140.333 35.62 140.173 35.4 140.133 35.08C140.093 34.72 140.253 34.26 140.613 33.7Z" fill="#EB3C3C"/>
</svg>
