<svg width="24" height="24" viewBox="0 0 24 24" fill="none" xmlns="http://www.w3.org/2000/svg">
<path fill-rule="evenodd" clip-rule="evenodd" d="M10.7167 4C7.00716 4 4 7.00716 4 10.7167C4 14.4262 7.00716 17.4334 10.7167 17.4334C14.4262 17.4334 17.4334 14.4262 17.4334 10.7167C17.4334 7.00716 14.4262 4 10.7167 4ZM5.03334 10.7167C5.03334 7.57785 7.57785 5.03334 10.7167 5.03334C13.8555 5.03334 16.4 7.57785 16.4 10.7167C16.4 13.8555 13.8555 16.4 10.7167 16.4C7.57785 16.4 5.03334 13.8555 5.03334 10.7167Z" fill="#979797"/>
<path d="M16.5932 15.8625C16.3914 15.6608 16.0643 15.6607 15.8625 15.8625C15.6607 16.0643 15.6607 16.3914 15.8625 16.5932L18.618 19.3487C18.8198 19.5505 19.1469 19.5505 19.3487 19.3487C19.5504 19.147 19.5504 18.8198 19.3487 18.618L16.5932 15.8625Z" fill="#979797"/>
</svg>
